<?xml version="1.0" encoding="utf-8"?>
<svg xmlns="http://www.w3.org/2000/svg" viewBox="136.2614 73.8809 229.6 309.5" width="229.6px" height="309.5px">
  <g id="Camada_1" transform="matrix(1, 0, 0, 1, -68.11337280273439, 183.3368682861328)">
    <g transform="matrix(1, 0, 0, 1, 63.074776, -129.455994)">
      <g>
        <path class="st1" d="M291.4,83.4c0,3.6-3,6.6-6.5,6.6h-53.4c-3.6,0-6.5-3-6.5-6.6V30.1c0-3.6,3-6.5,6.5-6.5h53.4 c3.6,0,6.5,3,6.5,6.5V83.4z" style="fill: rgb(47, 158, 65);"/>
        <path class="st1" d="M370.9,83.4c0,3.6-3,6.6-6.5,6.6H311c-3.6,0-6.6-3-6.6-6.6V30.1c0-3.6,3-6.5,6.6-6.5h53.4 c3.6,0,6.5,3,6.5,6.5V83.4z" style="fill: rgb(47, 158, 65);"/>
        <path class="st1" d="M370.9,243c0,3.6-3,6.5-6.5,6.5H311c-3.6,0-6.6-3-6.6-6.5v-53.3c0-3.6,3-6.6,6.6-6.6h53.4 c3.6,0,6.5,3,6.5,6.6V243z" style="fill: rgb(47, 158, 65);"/>
        <path class="st1" d="M211.4,162.9c0,3.6-3,6.5-6.6,6.5h-53.4c-3.6,0-6.6-3-6.6-6.5v-53.3c0-3.5,3-6.5,6.6-6.5h53.4 c3.6,0,6.6,3,6.6,6.5V162.9z" style="fill: rgb(47, 158, 65);"/>
        <path class="st1" d="M291.4,162.9c0,3.6-3,6.5-6.5,6.5h-53.4c-3.6,0-6.5-3-6.5-6.5v-53.3c0-3.5,3-6.5,6.5-6.5h53.4 c3.6,0,6.5,3,6.5,6.5V162.9z" style="fill: rgb(47, 158, 65);"/>
        <path class="st1" d="M211.4,243c0,3.6-3,6.5-6.6,6.5h-53.4c-3.6,0-6.6-3-6.6-6.5v-53.3c0-3.6,3-6.6,6.6-6.6h53.4 c3.6,0,6.6,3,6.6,6.6V243z" style="fill: rgb(47, 158, 65);"/>
        <path class="st1" d="M291.4,243c0,3.6-3,6.5-6.5,6.5h-53.4c-3.6,0-6.5-3-6.5-6.5v-53.3c0-3.6,3-6.6,6.5-6.6h53.4 c3.6,0,6.5,3,6.5,6.6V243z" style="fill: rgb(47, 158, 65);"/>
        <path class="st1" d="M211.4,323c0,3.6-3,6.5-6.6,6.5h-53.4c-3.6,0-6.6-2.9-6.6-6.5v-53.4c0-3.6,3-6.6,6.6-6.6h53.4 c3.6,0,6.6,3,6.6,6.6V323z" style="fill: rgb(47, 158, 65);"/>
        <path class="st1" d="M291.4,323c0,3.6-3,6.5-6.5,6.5h-53.4c-3.6,0-6.5-2.9-6.5-6.5v-53.4c0-3.6,3-6.6,6.5-6.6h53.4 c3.6,0,6.5,3,6.5,6.6V323z" style="fill: rgb(47, 158, 65);"/>
        <path class="st2" d="M214.9,56.8c0,20.2-16.6,36.8-36.8,36.8c-20.2,0-36.8-16.6-36.8-36.8c0-20.2,16.6-36.8,36.8-36.8 C198.3,20,214.9,36.6,214.9,56.8" style="fill: rgb(211, 33, 39);"/>
      </g>
    </g>
  </g>
</svg>